<svg xmlns="http://www.w3.org/2000/svg" viewBox="0 0 1024 1024" width="200" height="200"><path fill="#e74c3c" d="M765.42 262.83c-33.8-57.44-72.94-105.38-113.17-138.64-46.94-38.8-95.32-58.48-143.8-58.48-48.51 0-96.55 19.7-142.8 58.57-40.11 33.71-77.36 80.39-110.73 138.74-60.81 106.35-100.1 239.06-100.1 338.09 0 48.21 9.45 94.99 28.08 139.04 17.99 42.53 43.74 80.73 76.54 113.53 32.8 32.8 71 58.55 113.53 76.54 44.05 18.63 90.83 28.08 139.04 28.08s94.99-9.45 139.04-28.08c42.54-17.99 80.73-43.74 113.53-76.54 32.8-32.8 58.55-71 76.54-113.53 18.63-44.05 28.08-90.83 28.08-139.04-0.02-98.39-40.75-231.17-103.78-338.28z m-24.91 566.79c-61.04 61.04-142.19 94.65-228.51 94.65s-167.48-33.62-228.51-94.65c-61.04-61.04-94.65-142.19-94.65-228.51 0-93.54 37.53-219.62 95.61-321.2 30.93-54.09 66.57-98.9 103.08-129.58 39.95-33.57 80.63-50.59 120.91-50.59 40.36 0 81.45 17.05 122.13 50.68 37.22 30.77 73.71 75.61 105.53 129.68 60.18 102.26 99.07 228.26 99.07 321.02 0 86.31-33.62 167.46-94.66 228.5z"/><path fill="#e74c3c" d="M727.19 736.09c-0.51 0.69-1.03 1.38-1.54 2.06-2.2 2.72-4.39 5.44-6.69 8.09A214.007 214.007 0 0 1 703 762.72c-2.81 2.6-5.69 5.13-8.63 7.57a187.31 187.31 0 0 1-4.13 3.32c-0.04 0.02-0.06 0.04-0.1 0.07-1.04 0.73-2.06 1.52-3.09 2.27-7.48 5.43-11.89 15.65-6.36 24.24 4.78 7.41 16.22 12.18 24.24 6.36 49.45-35.9 84.5-90.61 95.01-151.03 3.03-17.43 4.4-35.07 3.44-52.75-0.51-9.24-7.79-18.16-17.72-17.72-9.16 0.41-18.26 7.81-17.72 17.72 0.38 6.89 0.45 13.78 0.16 20.67-0.14 3.31-0.36 6.62-0.66 9.93-0.14 1.52-0.29 3.05-0.46 4.57-0.09 0.84-0.2 1.67-0.3 2.51-0.02 0.12-0.03 0.23-0.06 0.37-2.11 13.64-5.35 27.04-9.89 40.08-1.01 2.89-2.08 5.77-3.2 8.62-0.34 0.85-0.69 1.69-1.02 2.54-0.66 1.5-1.32 3.01-2 4.5-2.88 6.27-6.04 12.4-9.49 18.38a223.53 223.53 0 0 1-11.13 17.43c-0.89 1.24-1.79 2.48-2.7 3.72z m39.48-95.67c0.13-1.04 0.18-1.19 0 0zM782.27 568.37c9.27 0 18.15-8.15 17.72-17.72-0.43-9.6-7.78-17.72-17.72-17.72-9.27 0-18.15 8.15-17.72 17.72 0.43 9.6 7.78 17.72 17.72 17.72z"/></svg>
