<svg xmlns="http://www.w3.org/2000/svg" width="200" height="200" viewBox="0 0 1024 1024"><path fill="#999" d="M559.532 843.513a233.65 233.65 0 0 1-148.598-52.879 248.7 248.7 0 0 1-40.901-41.98c-43.411-3.5-86.199-18.572-124.499-43.945s-71.19-60.943-92.103-99.829c-32.812-60.994-34.438-123.55-4.435-171.669 30.172-48.431 34.997-82.453 33.684-102.455s-8.83-29.912-9.104-30.302a6 6 0 0 0 .468.533l38.795-34.594c2.874 3.226 17.388 20.99 21.172 54.48 4.67 41.76-9.025 88.812-40.85 139.858-19.832 31.81-17.608 75.339 6.113 119.453 30.498 56.741 99.724 114.953 185.48 117.164l14.372.377 7.179 12.134c.715 1.131 13.746 21.575 38.872 41.538 33.463 26.609 71.945 40.082 114.368 40.082s72.387-9.467 84.534-26.647c11.328-16.049 5.527-36.103 3.473-41.864a26.02 26.02 0 1 1 49.03-17.44c11.119 31.277 7.386 64.662-10.002 89.294-22.811 32.305-65.56 48.678-127.06 48.678zm0 0"/><path fill="#999" d="M695.255 795.017q-3.902 0-7.803-.117a26.02 26.02 0 1 1 1.456-52.021c42.527 1.196 73.805-9.715 92.949-32.41 37.142-44.035 22.368-120.519 22.212-121.286l-6.164-30.601 31.212-.56c24.268-.48 31.408-10.469 33.814-13.759 15.021-20.99 7.582-66.327 1.626-85.054l-5.384-16.907 13.798-11.184c31.889-25.829 34.88-38.69 35.114-40.798-1.677-2.08-8.388-5.592-14.306-6.88l-2.366-.416-1.912-.806c-152.864-58.146-282.812 68.772-284.112 70.033l-6.074 6.048-8.48 1.3c-3.836.56-38.664 4.916-79.565-16.14-23.735-12.224-44.647-30.536-62.14-54.44-20.899-28.52-36.921-65.168-47.637-108.892-11.848-48.38-31.616-78.89-58.81-90.686-37.455-16.256-80.515 6.932-82.271 7.882l-3.628 2.08-3.98.742-101.025 20.964 62.126 46.975a26.01 26.01 0 1 1-31.381 41.487L85.14 235.935a31.876 31.876 0 0 1 12.628-56.742l140.885-29.196c15.307-7.7 70.306-31.616 124.24-8.532 43.137 18.48 73.115 60.956 89.124 126.255 15.905 64.896 44.634 109.673 83.077 129.467a98.1 98.1 0 0 0 41.344 11.093 406.5 406.5 0 0 1 91.4-60.149c35.531-16.998 71.712-27.597 107.554-31.524a282.8 282.8 0 0 1 130.832 16.334c10.405 2.458 44.517 12.901 52.477 44.66 8.466 33.814-20.054 65.208-40.005 83.051 5.866 26.87 12.2 78.149-13.395 113.913-8.323 11.705-22.759 25.152-46.663 31.629 2.367 34.334 0 94.002-36.622 137.608-28.612 34.035-71.139 51.24-126.62 51.24zm0 0"/><path fill="#999" d="M467.455 253.674c-18.857 0-41.76-4.24-68.928-12.719a26.013 26.013 0 0 1 15.529-49.654c45.115 14.098 61.45 10.287 65.351 8.792-.117-3.525-2.913-10.183-5.761-13.968-32.084-4.357-67.393-34.425-70.606-73.193-.82-9.897-12.485-27.961-26.31-36.415-5.579-3.407-9.285-3.81-10.104-3.46-12.433 5.112-25.178 4.28-38.678 3.408-17.609-1.144-37.572-2.458-64.506 7.803a16.7 16.7 0 0 0-3.121 1.522c.143 2.224 1.378 9.247 10.404 22.525a159.4 159.4 0 0 0 15.775 19.508 26.01 26.01 0 0 1-37.064 36.492 210 210 0 0 1-21.732-26.777c-16.114-23.722-22.24-45.129-18.208-63.557 2.211-10.105 9.741-28.52 35.518-38.3 37.455-14.306 66.873-12.316 86.354-11.055 5.619.364 13.279.859 15.75.3 17.4-7.062 37.559-4.474 56.794 7.282 27.31 16.647 48.717 48.848 50.98 76.484 1.21 14.566 19.508 25.867 26.66 26.01 20.21.287 35.7 19.3 43.451 37.013 10.404 23.605 8.064 47.157-6.112 62.998-11.354 12.602-28.39 18.935-51.423 18.935zm84.794 405.607c-.624 0-1.3 0-1.899-.065-97.682-7.088-157.103-48.548-189.72-82.076-36.024-37.013-48.47-73.167-48.977-74.689l49.276-16.66v-.142c.091.286 10.118 28.234 38.782 56.95 38.196 38.26 90.152 60.006 154.437 64.674a26.01 26.01 0 0 1-1.86 51.956zm0 0"/><path fill="#999" d="M638.89 659.346a122.4 122.4 0 0 1-48.9-10.066c-64.401-27.792-88.071-103.677-89.046-106.89a26.013 26.013 0 0 1 49.758-15.19c.22.703 17.999 56.39 60.123 74.416 22.59 9.663 49.68 6.776 80.554-8.57a26.013 26.013 0 1 1 23.136 46.597c-26.426 13.136-51.747 19.716-75.625 19.716zM482.827 937.658l7.621-125.656 51.917 3.212-7.62 125.656zm0 0"/><path fill="#999" d="M598.808 1015.338a23.85 23.85 0 0 1-16.907-6.97l-23.41-23.41a9.74 9.74 0 0 0-6.242-2.822c-115.434-6.828-196.17-10.963-205.912-10.586a10.5 10.5 0 0 0-5.332 2.6l-6.502 6.36a23.93 23.93 0 0 1-33.528-34.138l6.503-6.36a58.08 58.08 0 0 1 35.647-16.152c12.641-.859 122.25 5.202 211.985 10.573a57.55 57.55 0 0 1 37.234 16.647l23.41 23.344a23.93 23.93 0 0 1-16.907 40.888zm0 0"/><path fill="#999" d="m388.24 896.197 161.148 40.72-11.327 43.307L376.9 939.518zM278.515 294.056a33.462 33.462 0 1 0 33.463-33.463 33.46 33.46 0 0 0-33.463 33.463M309.988 492.8a25.92 25.92 0 1 0 13.005-22.447 25.93 25.93 0 0 0-13.005 22.447m0 0"/><path fill="#999" d="M353.763 923.118a27.805 27.805 0 1 0 55.61 0 27.805 27.805 0 1 0-55.61 0"/></svg>