<svg xmlns="http://www.w3.org/2000/svg" viewBox="0 0 1024 1024" width="200" height="200"><path fill="#e74c3c" d="M559.53216169 843.51332828a233.65189291 233.65189291 0 0 1-148.5977145-52.87924965A248.67292843 248.67292843 0 0 1 370.03301089 748.65320865c-43.41144462-3.49840611-86.19863837-18.57146311-124.49902933-43.94465847s-71.19060765-60.9424896-92.10301099-99.82811592c-32.8121856-60.99450994-34.43783907-123.54964821-4.43478243-171.66898517 30.17212473-48.4314624 34.99706368-82.45313309 33.68353564-102.45517084s-8.83054819-29.91201963-9.10365809-30.30217728a5.99540963 5.99540963 0 0 0 0.46818758 0.533215l38.79459044-34.59390237c2.87415523 3.22529621 17.38798763 20.99043442 21.17250731 54.47889238 4.66887566 41.75978155-9.02562702 88.81268963-40.84941483 139.85820217-19.83296967 31.81078301-17.60907605 75.33927538 6.11245625 119.45300195 30.49725497 56.74180153 99.7240741 114.95319325 185.48053447 117.16408207l14.37077504 0.3771517 7.17888512 12.13387549c0.71528789 1.13145515 13.74652416 21.57566976 38.87262038 41.53869198 33.46244722 26.60869234 71.94491107 40.08210659 114.36795904 40.08210774s72.38708907-9.46780501 84.53396935-26.64770902c11.32755171-16.04844885 5.52722091-36.10250809 3.47239537-41.86382221a26.01955555 26.01955555 0 1 1 49.02970254-17.44000912c11.11946809 31.27756914 7.38696875 64.66198414-10.00101888 89.29388317-22.81116672 32.30498133-65.55934493 48.67856157-127.06105912 48.67856158z m0 0"/><path fill="#e74c3c" d="M695.25470092 795.01683958q-3.90156743 0-7.803136-0.1170466a26.02085603 26.02085603 0 1 1 1.45658539-52.02090438c42.52708978 1.19648029 73.80465778-9.71490418 92.94835143-32.40902315 37.14292622-44.0356955 22.36898873-120.51943083 22.21292657-121.28673907L797.90495059 558.58182961l31.21254286-0.55922462c24.26775211-0.48119353 31.40762055-10.46920647 33.81358819-13.75953009 15.02103666-20.99043442 7.58204643-66.32665315 1.6256535-85.05417841l-5.38416358-16.9067941 13.79854451-11.18449438c31.88881408-25.82837931 34.88001593-38.69054749 35.11411029-40.79739448-1.67767381-2.08083627-8.38837134-5.59224718-14.30574877-6.87976447l-2.36695095-0.41616726-1.9117682-0.80632376C736.63733075 324.07159146 606.68911159 450.98959323 605.38858835 452.25110093l-6.0734407 6.04742997-8.47940723 1.30052209c-3.83654115 0.55922461-38.66453675 4.91597597-79.56597305-16.13948585-23.7345371-12.2249125-44.64694158-30.53627051-62.13897102-54.43987571-20.89939854-28.52046051-36.92183666-65.16918841-47.63814343-108.89275847-11.84776078-48.37944093-31.61570418-78.88970183-58.80963186-90.68544227-37.45505166-16.25653248-80.51535531 6.93178595-82.27106019 7.88116708l-3.62845867 2.08083627-3.97959851 0.74129862-101.02459733 20.96442368 62.12596509 46.97487701a26.01045219 26.01045219 0 1 1-31.38160982 41.48667164L85.14052777 235.93517417a31.87580928 31.87580928 0 0 1 12.62807494-56.74180152l140.88561437-29.19673287c15.30715136-7.69909419 70.3062528-31.61570418 124.23892536-8.53142757 43.13833472 18.4804261 73.11538176 60.9554944 89.12481395 126.25473537 15.9053915 64.89607851 44.63393565 109.6730715 83.0773851 129.46702563a98.07240989 98.07240989 0 0 0 41.34361316 11.09345736 406.45233209 406.45233209 0 0 1 91.40073016-60.14917064c35.53027755-16.99782997 71.71081671-27.59709013 107.5532197-31.5246683a282.79864206 282.79864206 0 0 1 130.83257515 16.3345647c10.40418133 2.45798798 44.51688903 12.90118485 52.47608718 44.65994638 8.46640242 33.81358819-20.05405923 65.20820395-40.00407552 83.05137437 5.86535709 26.86879744 12.19890176 78.1484032-13.39538318 113.9127751-8.32334507 11.70470343-22.75914525 25.15210695-46.66275157 31.62871012 2.36695097 34.33379726 0 94.00177437-36.62271602 137.60829782-28.61149753 34.03467662-71.13858731 51.24059136-126.61888228 51.24059022z m0 0"/><path fill="#e74c3c" d="M467.4551603 253.67430278c-18.85757781 0-41.75978155-4.23970361-68.9276985-12.71911082a26.01305315 26.01305315 0 0 1 15.52823979-49.65395343c45.11512917 14.09766514 61.44969387 10.28713358 65.3512613 8.79153265-0.11704661-3.52441571-2.91317077-10.18309177-5.76131527-13.96761258-32.08389291-4.35675022-67.39308203-34.42483314-70.6053723-73.19341283-0.81932971-9.89697707-12.4850176-27.96123591-26.30957283-36.41463354-5.57924238-3.4073691-9.28573099-3.81053155-10.1050607-3.45938944-12.43299613 5.11105365-25.17811769 4.27871915-38.67754154 3.4073691-17.60907605-1.14445995-37.57209827-2.45798798-64.505922 7.80313601a16.67269973 16.67269973 0 0 0-3.1212544 1.52161052c0.14305735 2.22389362 1.37855431 9.24671545 10.40418134 22.52505202a159.405056 159.405056 0 0 0 15.77533895 19.50783943 26.01045219 26.01045219 0 0 1-37.06489402 36.4926646 210.29450638 210.29450638 0 0 1-21.73173304-26.77776043c-16.11347513-23.7215323-22.23893618-45.12813511-18.20731733-63.55654086 2.21088882-10.10506069 9.74091491-28.52046051 35.51727274-38.30039097 37.45505166-14.30574877 66.87287296-12.31594951 86.35470166-11.05444182 5.61825792 0.36414578 13.27833543 0.85834525 15.74932935 0.29912064 17.40099243-7.06183737 37.55909347-4.47379797 56.79382187 7.2829258 27.31097429 16.64668899 48.7175771 48.84762965 50.98048625 76.48373531 1.20948622 14.56585273 19.50783943 25.86739485 26.66071382 26.01045222 20.21012139 0.2861147 35.69934563 19.29975581 43.45046015 37.01287365 10.40418133 23.60448569 8.06323997 47.1569499-6.11245624 62.99731515-11.35356245 12.60206421-28.3904091 18.93560889-51.42266425 18.93560888z m84.79407445 405.60699278c-0.62425088 0-1.3005221 0-1.89876338-0.06502627-97.68225337-7.08784811-157.10313131-48.54850901-189.72023808-82.07598251-36.02447587-37.01287367-48.47047794-73.1674021-48.97768221-74.68901376L360.92935279 485.79157921v-0.14305847c0.09103701 0.2861147 10.11806549 28.23434581 38.7815845 56.94988515 38.19634915 38.26137543 90.15222727 60.00611328 154.43706083 64.67499007a26.01045219 26.01045219 0 0 1-1.85974783 51.95587813z m0 0"/><path fill="#e74c3c" d="M638.89005111 659.3463207a122.37917753 122.37917753 0 0 1-48.89965-10.06604402c-64.40188018-27.79216782-88.07139101-103.67766301-89.046784-106.88995442a26.01305315 26.01305315 0 0 1 49.75799524-15.19010361c0.22108843 0.70228195 17.99923257 56.39066055 60.12316103 74.41590386 22.59007829 9.6628827 49.67996416 6.77572267 80.5543697-8.57044423a26.01305315 26.01305315 0 1 1 23.13629812 46.5977253c-26.42661945 13.13527808-51.74779449 19.71592306-75.62539009 19.71592305z m-156.06271317 278.31183929l7.62106197-125.65649409 51.91686258 3.21229028-7.62106198 125.65649522z m0 0"/><path fill="#e74c3c" d="M598.80794451 1015.33837559a23.85158485 23.85158485 0 0 1-16.9067941-6.97080149l-23.40940686-23.40940686a9.74091491 9.74091491 0 0 0-6.2425088-2.82213376c-115.43438677-6.82774414-196.17083051-10.96340594-205.91174543-10.58625422a10.48221241 10.48221241 0 0 0-5.33214207 2.60104533l-6.5026139 6.35955542a23.92961593 23.92961593 0 0 1-33.52747236-34.13871844l6.50261276-6.35955543a58.0813403 58.0813403 0 0 1 35.6473253-16.15249065c12.64107975-0.85834525 122.24912498 5.20209067 211.985185 10.57324829a57.5481253 57.5481253 0 0 1 37.23396324 16.64669013l23.40940686 23.34438058a23.92961593 23.92961593 0 0 1-16.90679411 40.88843037z m0 0"/><path fill="#e74c3c" d="M388.24032823 896.19749907l161.14775608 40.71936343-11.32755171 43.3074028-161.16076203-40.70635747z m0 1e-8M278.51523524 294.05553002a33.46244722 33.46244722 0 1 0 33.46244723-33.46244724 33.46244722 33.46244722 0 0 0-33.46244723 33.46244724z m0 0M309.98788207 492.80139511a25.91941518 25.91941518 0 1 0 13.00522668-22.4470198 25.93242112 25.93242112 0 0 0-13.00522668 22.4470198z m0 0"/><path fill="#e74c3c" d="M381.56864737 923.11831686m-27.80517376 0a27.80517376 27.80517376 0 1 0 55.61034638 0 27.80517376 27.80517376 0 1 0-55.61034638 0Z"/></svg>
